<svg width="21" height="21" viewBox="0 0 21 21" fill="none" xmlns="http://www.w3.org/2000/svg">
<path fill-rule="evenodd" clip-rule="evenodd" d="M18.2273 10.8542C18.2273 12.9759 17.3844 15.0108 15.8841 16.511C14.3839 18.0113 12.349 18.8542 10.2273 18.8542C8.10556 18.8542 6.07072 18.0113 4.57043 16.511C3.07014 15.0108 2.22729 12.9759 2.22729 10.8542C2.22729 8.73246 3.07014 6.69762 4.57043 5.19733C6.07072 3.69704 8.10556 2.85419 10.2273 2.85419C12.349 2.85419 14.3839 3.69704 15.8841 5.19733C17.3844 6.69762 18.2273 8.73246 18.2273 10.8542ZM10.2273 7.85419C10.0516 7.85402 9.87894 7.90014 9.72674 7.98792C9.57453 8.07569 9.44814 8.20202 9.36029 8.35419C9.29685 8.47206 9.2104 8.576 9.10605 8.65985C9.0017 8.74369 8.88158 8.80573 8.7528 8.84229C8.62403 8.87885 8.48923 8.88918 8.35639 8.87267C8.22355 8.85617 8.09538 8.81316 7.97947 8.7462C7.86356 8.67924 7.76228 8.58969 7.68162 8.48286C7.60096 8.37602 7.54257 8.25409 7.50992 8.12427C7.47726 7.99445 7.471 7.8594 7.4915 7.72712C7.51201 7.59484 7.55886 7.46802 7.62929 7.35419C7.95951 6.7823 8.4692 6.33535 9.07931 6.08265C9.68943 5.82995 10.3659 5.78562 11.0038 5.95654C11.6416 6.12747 12.2053 6.50408 12.6073 7.02799C13.0093 7.55189 13.2273 8.19381 13.2273 8.85419C13.2275 9.4748 13.0352 10.0802 12.677 10.587C12.3189 11.0939 11.8124 11.4772 11.2273 11.6842V11.8542C11.2273 12.1194 11.1219 12.3738 10.9344 12.5613C10.7469 12.7488 10.4925 12.8542 10.2273 12.8542C9.96207 12.8542 9.70772 12.7488 9.52018 12.5613C9.33264 12.3738 9.22729 12.1194 9.22729 11.8542V10.8542C9.22729 10.589 9.33264 10.3346 9.52018 10.1471C9.70772 9.95954 9.96207 9.85419 10.2273 9.85419C10.4925 9.85419 10.7469 9.74883 10.9344 9.56129C11.1219 9.37376 11.2273 9.1194 11.2273 8.85419C11.2273 8.58897 11.1219 8.33462 10.9344 8.14708C10.7469 7.95954 10.4925 7.85419 10.2273 7.85419ZM10.2273 15.8542C10.4925 15.8542 10.7469 15.7488 10.9344 15.5613C11.1219 15.3738 11.2273 15.1194 11.2273 14.8542C11.2273 14.589 11.1219 14.3346 10.9344 14.1471C10.7469 13.9595 10.4925 13.8542 10.2273 13.8542C9.96207 13.8542 9.70772 13.9595 9.52018 14.1471C9.33264 14.3346 9.22729 14.589 9.22729 14.8542C9.22729 15.1194 9.33264 15.3738 9.52018 15.5613C9.70772 15.7488 9.96207 15.8542 10.2273 15.8542Z" fill="#D9D9D9"/>
</svg>
